<?xml version="1.0" encoding="utf-8"?>
<svg x="0px" y="0px"
	 viewBox="0 0 85 85" xmlns="http://www.w3.org/2000/svg" version="1.1" xml:space="preserve">
 <style type="text/css">.st0{fill:#00e676;}</style>

 <g>
  <g id="svg_1">
   <g fill="#fff" id="svg_2">
    <path d="m46.46032,84.64921l-13.4,0l-13.4,0l-19,-19l0,-13.4l0,-13.4l19,-19l13.4,0l13.4,0l19,19l0,13.4l0,13.4l-19,19zm-13.5,-8l10.1,0l14.4,-14.3l0,-10.1l0,-10.1l-14.3,-14.4l-10.1,0l-10.1,0l-14.4,14.4l0,10.1l0,10.1l14.3,14.3l10.1,0z" id="svg_3"/>
   </g>
   <g id="svg_4">
    <path class="st0" d="m65.56032,65.44921l-13.4,0l-13.4,0l-19,-19l0,-13.4l0,-13.4l19,-19l13.4,0l13.4,0l19,19l0,13.4l0,13.4l-19,19zm-13.4,-8l10.1,0l14.3,-14.3l0,-10.1l0,-10.1l-14.3,-14.4l-10.1,0l-10.1,0l-14.4,14.3l0,10.1l0,10.1l14.3,14.3l10.2,0.1z" id="svg_5"/>
   </g>
  </g>
 </g>
</svg>